<?xml version="1.0" encoding="UTF-8"?>
<!DOCTYPE svg PUBLIC "-//W3C//DTD SVG 1.1//EN" "http://www.w3.org/Graphics/SVG/1.1/DTD/svg11.dtd">
<!-- Creator: CorelDRAW 2020 (64-Bit) -->
<svg xmlns="http://www.w3.org/2000/svg" xml:space="preserve" width="59.1319mm" height="34.452mm" version="1.1" style="shape-rendering:geometricPrecision; text-rendering:geometricPrecision; image-rendering:optimizeQuality; fill-rule:evenodd; clip-rule:evenodd"
viewBox="0 0 4396.13 2561.31"
 xmlns:xlink="http://www.w3.org/1999/xlink"
 xmlns:xodm="http://www.corel.com/coreldraw/odm/2003">
 <defs>
  <style type="text/css">
   <![CDATA[
    .fil1 {fill:#FEFEFE}
    .fil2 {fill:#2B2A29}
    .fil3 {fill:#0038A8}
    .fil0 {fill:#60C658}
    .fil4 {fill:#0038A8;fill-rule:nonzero}
   ]]>
  </style>
 </defs>
 <g id="Layer_x0020_1">
  <metadata id="CorelCorpID_0Corel-Layer"/>
  <g id="_2818595327408">
   <path class="fil0" d="M4206.21 1852.8c-678.85,781.33 -2735.51,-267.94 -3558.98,693.09 941.74,-729.51 2992.21,368.64 3558.98,-693.09z"/>
   <g>
    <path class="fil1" d="M2863.61 446.39c-75.49,108.75 -97.26,144.46 -223.69,217.52 -10.67,4.18 -15.59,9.82 2.71,4.9 110.88,-37.86 189.09,-98.94 253.19,-169.65 31.17,-34.47 26.95,-48.03 20.09,-60.72 -18.33,-34.01 -12.07,-49.75 -52.29,7.96z"/>
    <g>
     <path class="fil2" d="M1958.25 924.53c214.38,-85.67 363.11,-139.93 446.16,-162.79 53.33,-17.4 112.8,-33.99 178.16,-54.91 218.01,-57.36 348.18,-159.45 390.49,-306.29 4.91,-35.71 14.8,-66.52 33.54,-91.69 6.12,-8.22 13.85,-18.88 22.5,-22.59 18.53,-6.64 14.82,-18.51 1.91,-24.94 -71.22,-39.54 -124.72,-26.62 -180.54,31.29 -208.52,-193.59 -470.16,-280.92 -785.42,-251.88 -11.01,1.72 -12.06,8.89 -0.6,13.57 191.67,44.98 294.59,101.55 371.41,184.06 70.19,75.39 151.46,165.67 227.58,188.49 -52.35,51.76 -96.31,88.62 -136.24,123.85 -58.64,50.64 -135,65.77 -260.29,73.77 -146.84,11.46 -279.82,19.15 -398.39,20.72 -13.59,0 -14.62,5.4 -1.26,7.55 124.94,16.18 319.32,17.66 488.13,22.61 50.99,1.34 58.65,14.67 22.99,39.99 -80.08,41.47 -253.16,116.15 -424.23,205.85 -5.39,2.83 -12.88,9.79 4.09,3.33zm905.4 -478.08c-75.58,108.68 -97.26,144.35 -223.69,217.44 -10.71,4.17 -15.63,9.84 2.7,4.97 110.8,-37.9 189.09,-99.03 253.12,-169.7 31.22,-34.47 26.99,-48.03 20.16,-60.73 -18.33,-34.06 -12.11,-49.74 -52.29,8.01z"/>
     <path class="fil2" d="M2890.72 245.83c-21.26,-76.41 -121.69,-164.23 -261.66,-233.65 -28.96,-16.91 -52.09,-18.95 -23.59,11.69 75.31,75.87 120.59,130.9 135.82,165.05 49.06,31.06 84.61,57.62 106.65,79.66 11.63,-8 32.8,-19.49 42.77,-22.76z"/>
    </g>
   </g>
   <g>
    <path class="fil3" d="M4087.56 1050.17c61.04,-16.34 125.76,-3.75 150.01,61.31 42.44,113.61 -31.43,227.33 -123.11,290.2 -67.59,46.34 -145.77,77.18 -223.4,107.37 -12.6,-162.73 -2.16,-405.7 196.5,-458.88zm-357.22 308.12c-17,103.42 7.55,206.22 62.22,287.4 89.48,132.88 247.21,186.17 399.74,150.21 -125.11,6.64 -224.65,-46.87 -270.86,-159.94 -15,-36.7 -22.67,-74.42 -28.56,-112.61 176.19,-13.92 474.39,-95.94 494.99,-284.77 13.9,-128.66 -72.2,-207.67 -206,-227.79 -237.68,-35.63 -417.47,140.14 -451.54,347.51z"/>
    <path class="fil3" d="M2561.13 1062.73c3.43,0 7.02,0.14 10.67,0.4l0.06 0c56.05,4.11 105.78,39.96 142.61,96.47 35.45,54.37 59.16,128.38 64.78,211.35 1.08,15.92 1.49,32.3 1.19,49.05l-0.01 0.57c-0.51,26.96 -2.9,53.33 -6.97,78.7 -4.06,25.42 -9.78,49.75 -16.94,72.6 -37.64,120.24 -116.09,203.26 -205.99,203.26l0 0.06c-3.43,0 -7.01,-0.15 -10.66,-0.41l-0.06 0c-56.04,-4.1 -105.77,-39.95 -142.61,-96.48 -35.41,-54.32 -59.09,-128.33 -64.73,-211.37l-0.05 0c-1.09,-15.92 -1.49,-32.3 -1.19,-49.02l0.01 -0.57c0.51,-26.96 2.91,-53.33 6.96,-78.69 4.07,-25.42 9.79,-49.74 16.95,-72.6 37.64,-120.23 116.07,-203.25 205.99,-203.25l0 -0.05zm31.02 -60.23c-12.39,-1.01 -25.02,-1.52 -37.81,-1.52 -147.77,0 -277.74,69.38 -340.15,209.04 -12.27,27.41 -21.94,57.53 -28.64,90.28 -6.76,32.98 -10.56,68.68 -11,107.09l-0.01 0.62c-0.19,16.99 0.29,33.61 1.39,49.85 7.67,113.23 46.21,199.1 104.98,257.92 58.35,58.38 137.11,90.45 225.64,96.4 9.94,0.67 20.21,1 30.78,1 147.78,0 275.43,-67.76 338.19,-207.7 12.3,-27.43 22.16,-57.71 29.2,-90.81 7.08,-33.28 11.34,-69.36 12.42,-108.22l-0.05 -0.01 0.01 -0.52c0.54,-20.21 0.16,-39.67 -1.1,-58.37l0.06 0c-7.46,-110.01 -45.54,-193.02 -103.27,-250.06 -57.33,-56.64 -134.54,-88.01 -220.65,-94.99z"/>
    <path class="fil3" d="M-0 1799.26l185.03 0c1.33,-65.07 5.05,-129.66 8.77,-194.26 4.49,-77.8 8.99,-155.67 9.26,-233.91l0.01 -1.91 0.53 -1.7 0.22 -0.71 0.06 -0.05c7.11,-22.16 15.33,-42.83 24.3,-61.95 9,-19.21 18.93,-37.27 29.4,-54.06 54.03,-86.67 122.8,-137.43 156.54,-145.11l0.7 -0.15 0.8 -0.1c31.24,-3.83 48.64,3.1 58.58,20.94 8.07,14.47 8.57,35.37 7.42,63.89l0.01 0.16 -0.03 0.6 0 0.06c-5.55,98.41 -5.24,244.83 -4.93,384.09 0.18,81.06 0.36,159.73 -0.6,224.25l165.41 0.55c-10.04,-62.33 -16.33,-130.2 -19.72,-204.83 -3.67,-80.73 -3.98,-168.8 -2.04,-265.86l0.01 0 0.01 -0.54 0 -0.05c0.74,-35.82 3.82,-71.38 6.79,-105.67 2.59,-29.92 5.11,-58.9 5.85,-86.7l0.02 0c-0.13,-33.39 -6.04,-60.11 -16.2,-81.07 -10.82,-22.35 -26.53,-38.23 -45.13,-48.77 -18.87,-10.71 -41.08,-16.17 -64.39,-17.46 -32.9,-1.84 -67.83,4.54 -99.2,16.05l-0.13 0.05c-11.93,4.39 -23.54,10.03 -34.7,16.62 -11.14,6.59 -21.91,14.24 -32.21,22.65 -53.51,43.7 -92.87,107.1 -112.1,156.96l-27.71 71.86 -0.34 -77.82 0 -0.77 -0.01 -0.06c-0.01,-30.74 4.67,-157.4 9.5,-288.55 4.85,-131.44 9.88,-267.46 10.48,-315.76 -3.64,-0.85 -7.36,-1.59 -11.11,-2.19 -7.53,-1.19 -15.12,-1.84 -22.7,-1.95 -38.77,-0.55 -82.11,12.09 -129.98,37.92 1.54,8.36 2.86,20.14 4.01,34.68 1.72,21.78 3.16,50.33 4.35,83.09 6.1,168.29 5.61,450.79 1.35,503.69l-0.02 0.33 0 0.06c-2.79,34.26 -14.43,126.72 -27.57,231.21 -14.11,112.21 -29.99,238.46 -38.56,322.22z"/>
    <path class="fil3" d="M779.87 2115.86l-0.72 1.92c-47.9,127.6 -88.31,222.33 -127.47,302.45 -25.11,51.36 -49.74,96.77 -75.59,141.08 93.55,-91.32 179.88,-225.35 239.04,-334.9 14.36,-26.62 27.02,-51.54 37.7,-73.87 10.77,-22.5 19.68,-42.62 26.43,-59.39l-0.01 0 0.04 -0.11 0.05 -0.1c73.57,-182.8 111.46,-361.48 146.4,-526.3 45.25,-213.52 95.82,-410.41 192.22,-552.84 -6.15,-3.46 -14.19,-7.42 -23.43,-11.23 -17.86,-7.38 -39.69,-13.92 -60.23,-14.93 -18.73,-0.91 -36.42,2.86 -48.36,15.33 -4.1,4.28 -7.65,9.64 -10.44,16.19 -78.66,184.53 -110.54,384.26 -121.11,450.54l0 0.05 -1.94 12.07 -10.96 68.14 -17.4 -68.66c-11.84,-46.74 -24.17,-88.11 -35.94,-127.63 -30.33,-101.81 -57.09,-191.66 -64.13,-333.32 -55.84,-28.52 -107.66,-39.95 -141.34,-35.19 -6.22,0.88 -11.66,2.3 -16.18,4.22 -1.79,0.76 -3.43,1.64 -4.94,2.56 54.29,176.61 88.22,304.37 122.39,433.1 25.88,97.49 51.92,195.56 87.17,316.15l0.48 1.61 0.02 1.69c1.07,59.4 -16.17,143.72 -48.09,245.4 -5.88,18.73 -12.66,39.16 -20.27,61.14 -7.43,21.45 -15.24,43.09 -23.38,64.83z"/>
    <path class="fil3" d="M2952.31 1799.04l184.46 0c-2.22,-60.55 -4.37,-115.96 -6.42,-168.35 -13.9,-356.5 -22.29,-572.35 3.55,-1049.15 -3.46,-0.8 -7,-1.5 -10.56,-2.07 -7.54,-1.19 -15.12,-1.84 -22.7,-1.95 -38.77,-0.56 -82.1,12.1 -129.95,37.92 1.59,8.15 3.01,19.51 4.28,33.46 1.91,21 3.65,48.6 5.19,80.32 7.86,162.51 10.46,434.76 6.2,487.71l-0.03 0.33c-2.07,25.95 -5.32,90.03 -9.26,168.49 -6.79,134.74 -15.71,311.81 -24.76,413.28z"/>
    <path class="fil3" d="M3223.61 1798.6l184.16 0c-4.77,-138.54 -10.88,-216.97 -15.66,-278.4 -9.55,-122.94 -13.85,-178.42 8.06,-504 -3.39,-0.71 -6.81,-1.33 -10.21,-1.81 -7.43,-1.06 -15.09,-1.66 -22.9,-1.75 -38.37,-0.47 -81.21,10.68 -128.57,33.39 56.68,144.77 7.76,560.07 -12.69,733.75l-2.19 18.82z"/>
    <path class="fil3" d="M3367.62 770.37c-5.41,-0.99 -11.09,-1.51 -16.99,-1.51 -38.51,0 -75.18,21.81 -95.72,53.38 -4.07,6.25 -7.47,12.78 -10.07,19.46 -2.63,6.76 -4.56,13.8 -5.63,20.99l0.05 0.01 -0.03 0.22c-0.95,6.43 -1.2,12.7 -0.79,18.7l-0.06 0c1.2,17.62 8.03,33.27 18.99,45.25 10.79,11.78 25.78,20.13 43.45,23.36 5.41,0.99 11.1,1.51 16.99,1.51 38.53,0 75.19,-21.81 95.72,-53.38 4.07,-6.25 7.48,-12.79 10.07,-19.46 2.63,-6.76 4.55,-13.8 5.63,-20.99l-0.06 -0.01 0.04 -0.22c0.94,-6.43 1.19,-12.7 0.79,-18.71 -1.2,-17.65 -8.01,-33.29 -18.94,-45.24 -10.79,-11.78 -25.78,-20.13 -43.45,-23.36z"/>
    <path class="fil3" d="M1855.78 1798.56l155.05 0c-0.04,-73.3 -0.22,-146.37 -0.72,-219.01 -0.52,-77.7 -1.37,-155.02 -2.69,-231.72l-0.01 -0.92 0.07 -0.69c1.37,-12.07 3.59,-24.11 6.53,-35.89 11.46,-46.09 34.12,-88.91 60.98,-119.15 26.91,-30.33 58.74,-48.52 89.32,-46.42 13.63,-35.74 24.07,-69.24 26.62,-95.59 2.1,-21.63 -1.1,-37.42 -12.79,-43.37 -20.57,3.82 -42.64,18.4 -66.15,42.6 -26.38,27.17 -53.96,65.94 -82.73,114.8l-26.05 44.27 -1.14 -51.75c-0.51,-23.15 -0.51,-36.19 -0.54,-50.42 -0.01,-15.12 -0.01,-31.56 -0.54,-59.66 -20.89,-5.19 -40.03,-5.48 -60.58,-0.8 -22.73,5.19 -47.72,16.43 -78.8,33.65 6.67,15.47 12.2,30.96 15.87,49.74 4.47,22.85 6.11,50.29 3.64,88.09l-0.02 0.37c-1.8,27.73 -4.04,91.02 -6.77,168.46 -4.77,134.74 -11.01,311.83 -18.55,413.42z"/>
    <path class="fil3" d="M1672.29 1137.67l-0.92 23.64c-0.93,24.77 -1.46,38.74 -3.69,60.06l-0.01 0 -0.02 0.22 0.01 0.05c-1.81,17.4 -6.85,83.59 -13.03,164.7 -3.67,48.26 -7.75,101.81 -11.78,153.53l-0.05 0.63 -0.17 0.83c-9.03,44.37 -33.96,92.11 -68.31,128.06 -23.83,24.96 -52.42,44.49 -83.69,53.67 -32.39,9.51 -67.35,8.03 -102.62,-9.61 -26.5,-13.25 -52.97,-35.64 -78.28,-69.39l-0.26 -0.36 -0.07 -0.1 0.02 -0.01c-11.88,-15.95 -21.25,-34.9 -28.24,-55.92 -6.86,-20.62 -11.55,-43.54 -14.18,-67.77 -13.38,-122.65 26.67,-280.13 96.93,-350.77l-0.01 -0.06 0.1 -0.09 0.03 0.03c9.61,-9.64 19.96,-18.57 30.88,-26.65 11.02,-8.15 22.73,-15.55 34.9,-22.05l0.03 0.04c63.19,-33.8 139.8,-44.06 206.69,-16.3l0.11 0.04 0.06 0c1.79,0.74 3.69,1.63 5.62,2.57l0.05 0.06c2.02,1 3.84,1.98 5.41,2.9 9.23,5.41 16.6,12.14 22.07,20.03l2.61 3.77 -0.17 4.24zm-58.48 665.32l174.88 0c-21.06,-445.89 -3.85,-661.72 34.82,-1146.7l6.88 -86.34c-3.26,-0.75 -6.62,-1.43 -9.95,-1.96 -7.49,-1.18 -15.07,-1.84 -22.65,-1.94 -38.81,-0.54 -82.51,12.15 -131.08,38 0.65,3.26 1.23,6.95 1.77,11.11 1.14,8.88 2.13,20.39 2.96,34.26 4.11,69.64 3.74,199.29 -1.19,362.6l-0.39 12.85 -13.89 -0.82c-3.32,-0.19 -4.51,-0.42 -5.61,-0.64 -0.1,-0.01 -0.25,-0.04 -1.26,-0.09l-2.09 -0.09 -5.58 -0.21 0 -0.01 -5.91 -0.16c-10.18,-0.24 -21.93,-0.37 -35.05,-0.37l0 0.06c-73.51,0 -128.56,9.25 -176.36,27.75 -48,18.58 -89.25,46.61 -134.79,84.03l0.02 0.03 -0.2 0.16 -0.11 0.05c-12.54,10.33 -24.44,21.3 -35.66,32.89 -11.16,11.54 -21.53,23.58 -31.05,36.07 -49.31,64.71 -78.29,143.9 -86.66,237.45 -4.93,55.09 -2.14,104.72 8.37,148.87 10.36,43.53 28.27,81.66 53.71,114.37 25.04,32.18 55.18,56.34 90.43,72.39 35.45,16.15 76.34,24.23 122.68,24.23l0.08 0 0.01 0.05c21.07,-0.01 45.01,-6.08 68.95,-15.72 7.8,-3.13 15.79,-6.76 23.81,-10.75 40.55,-20.17 77.82,-48.16 98.83,-72.08l31.21 -35.54 -5.38 46.74 -0.09 0.78 0.04 0.01c-2.79,24.97 -9.06,59.1 -13.28,82.08l-1.19 6.56z"/>
    <path class="fil3" d="M3673.6 1010.85c14.49,-3.49 30.32,-6.33 47.45,-8.53 14.18,-1.82 29.21,-3.14 45.02,-4.01 0.61,-1.5 1.14,-3.02 1.67,-4.51 1.28,-3.64 2.45,-7.66 3.5,-12.01 4.49,-18.69 5.52,-40.61 3.07,-65.76 -11.85,0.85 -23.85,2.61 -35.92,5.87 -16.54,4.48 -33.34,11.88 -50.2,23.8l-24.21 17.11 0.55 -28.98c1.12,-59.1 0.42,-73.27 -0.07,-83.18 -0.59,-11.74 -0.88,-18.05 1.71,-69.47 3.96,-78.34 22.82,-141.34 65.06,-186.98 19.98,-21.58 45.04,-39.13 76.01,-52.43 -73.43,8.62 -128.53,31.06 -168.22,63.45l0.02 0.02c-59.35,48.44 -84.84,119.67 -86.29,200.03l-0.01 0 -0.02 1.83 -0.01 0.61c-0.59,43.73 -1.67,92.27 -3.17,144.32 -1.47,51.02 -3.31,102.96 -5.44,154.65 -10.79,260.82 -29.9,536.64 -51.22,691.6 28.53,-0.85 56.61,-1.32 83.94,-1.18 28.03,0.13 54.96,0.87 80.29,2.47 0.8,-85.88 1.34,-176.86 1.9,-270.79 1,-166.41 2.06,-341.98 4.58,-505.94l0.16 -9.59 9.87 -2.39z"/>
    <path class="fil3" d="M4215.89 864.6c-0.16,-22.99 8.51,-42.7 26.05,-59.01 17.49,-16.27 38.68,-24.44 63.53,-24.44 24.85,0 46.12,8.16 63.83,24.44 17.72,16.32 26.65,36.02 26.81,59.01 0.16,23.05 -8.51,42.75 -26,59.1 -17.49,16.36 -38.64,24.52 -63.5,24.52 -24.85,0 -46.16,-8.16 -63.87,-24.52 -17.76,-16.36 -26.7,-36.06 -26.86,-59.1zm165.54 0c-0.13,-19.31 -7.64,-35.76 -22.41,-49.38 -14.77,-13.65 -32.61,-20.46 -53.45,-20.46 -20.84,0 -38.58,6.81 -53.22,20.46 -14.64,13.62 -21.91,30.06 -21.78,49.38 0.13,19.32 7.63,35.86 22.45,49.51 14.82,13.66 32.66,20.5 53.5,20.5 20.84,0 38.58,-6.85 53.17,-20.5 14.59,-13.65 21.86,-30.18 21.73,-49.51zm-46.99 50.44l-28.48 -44.22 -16.01 0 0.3 44.22 -15.91 0 -0.71 -102.94 28.45 0c26.73,0 40.15,9.51 40.28,28.49 0.1,13.23 -7,22.53 -21.33,27.99l30.64 46.46 -17.24 0zm-44.81 -90.3l0.24 34.2c1.32,0.17 4.79,0.25 10.39,0.25 10.36,0 17.28,-1.22 20.82,-3.67 3.55,-2.41 5.29,-7.06 5.24,-13.91 -0.07,-11.33 -8.1,-17 -24.15,-17l-6.3 0 -6.24 0.13z"/>
   </g>
   <path class="fil4" d="M1401.73 2041.9l11.92 -65.68c5.14,-27.84 25.72,-49.47 41.96,-49.47 16.51,0 19.49,11.35 19.49,22.44 0,5.14 -0.54,10 -1.63,15.95l-14.62 76.77 21.66 0 12.45 -67.04c5.41,-29.2 24.91,-48.12 41.15,-48.12 14.62,0 19.77,8.92 19.77,22.71 0,5.4 -0.81,11.89 -1.9,17.02l-14.08 75.41 21.92 0 14.62 -77.3c1.36,-7.3 2.17,-16.22 2.17,-22.17 0,-24.59 -16.79,-34.32 -31.95,-34.32 -19.49,0.27 -36.27,10.27 -47.91,29.19 -1.08,-16.48 -10.56,-29.19 -30.59,-29.19 -17.33,0 -33.84,9.19 -46.03,27.57l-0.54 0 3.25 -24.59 -19.76 0c-1.36,10.81 -3.25,23.52 -5.96,38.11l-17.32 92.71 21.92 0zm300.5 -130.82l-12.73 67.03c-5.41,28.65 -26.25,47.85 -42.5,47.85 -15.43,0 -20.85,-9.19 -20.85,-22.7 0,-5.68 0.81,-11.9 2.17,-19.2l13.81 -72.98 -22.21 0 -14.35 73.79c-1.62,8.65 -2.44,15.95 -2.44,22.17 0,29.73 17.87,37.89 34.66,37.89 17.32,0 34.38,-10.59 46.02,-27.62l0.54 0 -3.25 24.6 20.04 0c1.35,-10.81 2.97,-23.52 5.95,-38.12l17.6 -92.71 -22.47 0zm31.95 124.61c5.95,4.59 18.68,8.69 32.76,8.97 27.6,0 49.8,-15.46 49.8,-43.02 0,-14.6 -9.74,-26.22 -24.36,-34.33 -11.92,-6.48 -18.14,-12.43 -18.14,-21.89 0,-11.35 9.75,-19.73 23.28,-19.73 9.75,0 18.14,3.24 22.74,5.95l6.22 -17.03c-4.87,-3.24 -15.43,-6.48 -27.34,-6.48 -27.6,0 -47.38,17.57 -47.38,40.27 0,13.52 8.4,25.14 23.56,33.51 13.81,7.57 18.41,13.79 18.41,24.06 0,11.63 -9.75,21.36 -24.91,21.36 -10.82,0 -21.93,-4.33 -28.15,-8.11l-6.5 16.49zm214.15 6.22c-0.55,-14.59 1.08,-37.84 5.41,-60.55l13.54 -68.39c-9.2,-2.7 -22.74,-4.86 -35.47,-4.86 -57.13,0 -90.69,47.84 -90.69,93.53 0,24.87 14.35,43.29 37.63,43.29 18.68,0 36.82,-9.51 50.9,-36.81l0.54 0c-1.63,13.52 -2.98,25.95 -2.98,33.79l21.12 0zm-14.08 -74.6c-6.5,34.87 -28.7,59.2 -47.37,59.2 -17.33,0 -22.47,-14.33 -22.47,-28.93 0,-36.49 27.89,-71.63 62,-71.63 7.58,0 12.45,0.81 15.43,1.9l-7.58 39.46zm73.91 74.6l21.39 -113.26 29.24 0 3.24 -17.57 -28.96 0 1.08 -6.22c3.79,-21.62 12.46,-38.92 30.33,-38.92 5.14,0 9.75,0.81 13.27,2.43l4.87 -17.84c-3.25,-1.89 -9.2,-3.51 -18.14,-3.51 -11.37,0 -22.74,4.05 -31.14,11.62 -11.63,10.54 -18.13,27.3 -21.38,45.41l-1.35 7.03 -17.33 0 -3.52 17.57 17.6 0 -21.66 113.26 22.47 0zm76.61 0l21.39 -113.26 29.24 0 3.24 -17.57 -28.96 0 1.09 -6.22c3.78,-21.62 12.45,-38.92 30.32,-38.92 5.14,0 9.75,0.81 13.27,2.43l4.87 -17.84c-3.25,-1.89 -9.2,-3.51 -18.14,-3.51 -11.37,0 -22.74,4.05 -31.14,11.62 -11.63,10.54 -18.13,27.3 -21.38,45.41l-1.35 7.03 -17.33 0 -3.52 17.57 17.6 0 -21.66 113.26 22.47 0zm125.6 -133.8c-42.5,0 -72.55,39.73 -72.55,82.98 0,29.46 18.41,53.83 51.16,53.83 44.13,0 72.82,-41.95 72.82,-82.49 0,-27.57 -15.97,-54.33 -51.44,-54.33zm-2.43 17.84c23.55,0 30.59,21.36 30.59,36.5 0,30.54 -20.04,64.6 -46.56,64.6 -18.95,0 -30.87,-15.4 -30.87,-36.76 0,-30.01 18.68,-64.34 46.84,-64.34zm152.96 -39.19l-4.6 24.33 -18.68 0 -3.26 17.57 18.68 0 -12.72 66.23c-1.9,9.46 -2.98,16.76 -2.98,24.33 0,13.52 7.86,25.46 27.62,25.46 6.49,0 13.26,-0.81 17.32,-2.44l1.09 -17.61c-2.98,0.81 -6.5,1.08 -10.56,1.08 -8.65,0 -12.45,-4.86 -12.45,-12.7 0,-6.76 1.08,-13.52 2.7,-20.82l11.92 -63.52 31.4 0 3.52 -17.57 -31.4 0 5.95 -31.36 -23.56 7.03zm123.72 21.36c-42.5,0 -72.55,39.73 -72.55,82.98 0,29.46 18.4,53.83 51.16,53.83 44.13,0 72.82,-41.95 72.82,-82.49 0,-27.57 -15.97,-54.33 -51.43,-54.33zm-2.44 17.84c23.55,0 30.6,21.36 30.6,36.5 0,30.54 -20.04,64.6 -46.57,64.6 -18.95,0 -30.87,-15.4 -30.87,-36.76 0,-30.01 18.68,-64.34 46.84,-64.34zm65.25 163.31c8.12,5.4 23.28,9.19 39.25,9.19 14.89,0 32.49,-3.24 45.76,-14.33 13.53,-11.9 21.11,-30.82 26.26,-58.7l20.3 -108.12c-10.29,-4.87 -27.07,-9.19 -42.23,-9.19 -50.63,0 -83.12,44.06 -83.12,88.39 0,23.25 13.54,45.41 40.07,45.41 17.86,0 33.84,-9.19 45.48,-27.84l0.54 0 -4.33 19.73c-7.58,35.45 -24.91,46.54 -47.1,46.54 -13.53,0 -26.8,-3.52 -34.65,-8.65l-6.22 17.58zm98.54 -114.93c-4.88,25.41 -24.36,49.74 -43.59,49.74 -20.03,0 -25.44,-16.76 -25.17,-31.35 0,-32.17 22.74,-66.49 55.5,-66.49 9.21,0 17.32,2.43 21.66,4.32l-8.39 43.79zm79.6 -117.85l27.07 38.66 16.24 0 -17.87 -38.66 -25.44 0zm116.4 179.21c5.96,4.59 18.68,8.69 32.76,8.97 27.61,0 49.81,-15.46 49.81,-43.02 0,-14.6 -9.74,-26.22 -24.36,-34.33 -11.92,-6.48 -18.14,-12.43 -18.14,-21.89 0,-11.35 9.75,-19.73 23.28,-19.73 9.75,0 18.13,3.24 22.73,5.95l6.23 -17.03c-4.87,-3.24 -15.43,-6.48 -27.34,-6.48 -27.61,0 -47.38,17.57 -47.38,40.27 0,13.52 8.4,25.14 23.56,33.51 13.81,7.57 18.41,13.79 18.41,24.06 0,11.63 -9.75,21.36 -24.91,21.36 -10.83,0 -21.93,-4.33 -28.15,-8.11l-6.51 16.49zm211.44 -124.61l-12.73 67.03c-5.41,28.65 -26.25,47.85 -42.5,47.85 -15.43,0 -20.84,-9.19 -20.84,-22.7 0,-5.68 0.81,-11.9 2.16,-19.2l13.81 -72.98 -22.21 0 -14.35 73.79c-1.62,8.65 -2.43,15.95 -2.43,22.17 0,29.73 17.87,37.89 34.65,37.89 17.33,0 34.38,-10.59 46.03,-27.62l0.54 0 -3.26 24.6 20.04 0c1.36,-10.81 2.98,-23.52 5.96,-38.12l17.59 -92.71 -22.47 0zm43.59 0l22.74 130.82 21.92 0 72.82 -130.82 -24.64 0 -39.79 76.23c-7.58,14.86 -11.1,23.52 -14.08,30.54l-0.81 0c-0.27,-7.3 -2.17,-17.3 -4.06,-32.17l-11.37 -74.6 -22.74 0zm139.15 130.82l24.91 -130.82 -22.21 0 -25.17 130.82 22.47 0zm19.49 -152.99c8.93,0 15.16,-6.22 15.43,-15.14 0,-8.1 -5.41,-14.05 -13.54,-14.05 -7.84,0 -14.35,6.48 -14.62,15.14 0,8.1 4.87,14.05 12.73,14.05z"/>
  </g>
 </g>
</svg>
